<svg width="386" height="78" viewBox="0 0 386 78" fill="none" xmlns="http://www.w3.org/2000/svg">
<path d="M60.88 77.116C59.5573 77.116 58.152 76.62 56.664 75.628C55.176 74.636 54.432 72.9827 54.432 70.668C54.432 67.0307 55.5067 63.0213 57.656 58.64C59.888 54.176 62.7813 49.6707 66.336 45.124C69.9733 40.5773 73.9413 36.196 78.24 31.98C82.6213 27.764 86.9613 23.9613 91.26 20.572C95.6413 17.1827 99.6507 14.5373 103.288 12.636C107.008 10.652 109.943 9.66 112.092 9.66C114.903 9.66 116.308 10.8173 116.308 13.132C116.308 14.372 115.357 16.356 113.456 19.084C111.637 21.7293 108.62 24.7053 104.404 28.012C100.188 31.3187 94.608 34.584 87.664 37.808C80.8027 41.032 72.288 43.884 62.12 46.364C57.408 47.5213 52.6133 48.6787 47.736 49.836C42.9413 50.9933 38.3947 52.2747 34.096 53.68C29.88 55.0853 26.2427 56.6973 23.184 58.516C20.208 60.3347 18.1413 62.484 16.984 64.964C16.8187 65.3773 16.5707 65.5427 16.24 65.46C15.992 65.3773 16.0333 65.0053 16.364 64.344C17.356 62.0293 19.34 59.9627 22.316 58.144C25.3747 56.2427 29.012 54.548 33.228 53.06C37.5267 51.572 42.1147 50.208 46.992 48.968C51.8693 47.6453 56.7053 46.4053 61.5 45.248C69.7667 43.264 76.876 40.9493 82.828 38.304C88.8627 35.576 93.9053 32.8067 97.956 29.996C102.007 27.1853 105.231 24.54 107.628 22.06C110.108 19.4973 111.885 17.3893 112.96 15.736C114.035 14 114.572 12.9253 114.572 12.512C114.572 11.3547 113.911 10.776 112.588 10.776C110.604 10.776 108.124 11.6853 105.148 13.504C102.255 15.3227 99.072 17.7613 95.6 20.82C92.128 23.8787 88.5733 27.3093 84.936 31.112C81.3813 34.9147 77.9093 38.8413 74.52 42.892C71.2133 46.9427 68.2373 50.8693 65.592 54.672C62.9467 58.4747 60.8387 61.9053 59.268 64.964C57.78 67.94 57.036 70.296 57.036 72.032C57.036 73.8507 57.4493 74.9667 58.276 75.38C59.1853 75.7107 60.1773 75.876 61.252 75.876C63.236 75.876 65.3027 75.1733 67.452 73.768C69.6013 72.28 71.6267 70.3787 73.528 68.064C75.512 65.7493 77.1653 63.3107 78.488 60.748C79.8107 58.1027 80.6787 55.664 81.092 53.432C81.2573 52.7707 81.5467 52.564 81.96 52.812C82.456 52.9773 82.6627 53.7627 82.58 55.168C82.4973 56.9867 81.7947 59.1773 80.472 61.74C79.1493 64.22 77.4133 66.6173 75.264 68.932C73.1147 71.2467 70.8 73.1893 68.32 74.76C65.84 76.3307 63.36 77.116 60.88 77.116ZM10.784 77.116C7.808 77.116 5.41067 76.5787 3.592 75.504C1.69067 74.3467 0.74 72.7347 0.74 70.668C0.74 69.5933 1.15333 68.684 1.98 67.94C2.724 67.1133 3.75733 66.7 5.08 66.7C6.73333 66.7 7.56 67.3613 7.56 68.684C7.56 69.676 7.27067 70.3373 6.692 70.668C6.03067 70.9987 5.49333 71.164 5.08 71.164C4.25333 71.164 3.67467 71.0813 3.344 70.916C2.93067 70.7507 2.724 70.668 2.724 70.668C2.724 71.4947 3.13733 72.5693 3.964 73.892C4.708 75.132 6.60933 75.752 9.668 75.752C12.9747 75.752 16.1573 74.8427 19.216 73.024C22.3573 71.1227 25.3747 68.6427 28.268 65.584C31.244 62.4427 34.1373 59.0533 36.948 55.416C39.8413 51.696 42.7347 48.0173 45.628 44.38C47.9427 41.404 50.4227 38.3867 53.068 35.328C55.7133 32.2693 58.4 29.4173 61.128 26.772C63.856 24.044 66.4187 21.7707 68.816 19.952C69.4773 19.456 70.056 19.1253 70.552 18.96C71.1307 18.7947 71.3373 18.9187 71.172 19.332C71.0893 19.58 70.18 20.4067 68.444 21.812C66.7907 23.2173 64.6827 24.788 62.12 26.524C59.5573 28.26 56.8707 29.7893 54.06 31.112C51.2493 32.4347 48.6867 33.096 46.372 33.096C44.5533 33.096 43.148 32.6827 42.156 31.856C41.2467 31.0293 40.792 29.872 40.792 28.384C40.792 26.4827 41.2467 24.8293 42.156 23.424C43.148 22.0187 44.2227 20.82 45.38 19.828C46.62 18.836 47.6947 17.968 48.604 17.224C49.596 16.48 50.092 15.736 50.092 14.992C50.092 13.8347 49.4307 13.0493 48.108 12.636C46.868 12.14 45.38 11.892 43.644 11.892C40.42 11.892 37.6093 12.512 35.212 13.752C32.8973 14.9093 31.244 16.0667 30.252 17.224C29.756 17.72 29.3427 17.844 29.012 17.596C28.6813 17.2653 28.6813 16.9347 29.012 16.604C29.4253 16.108 30.2933 15.4053 31.616 14.496C32.9387 13.5867 34.6333 12.76 36.7 12.016C38.7667 11.1893 41.0813 10.776 43.644 10.776C44.388 10.776 45.4213 10.9 46.744 11.148C48.1493 11.3133 49.3893 11.768 50.464 12.512C51.6213 13.256 52.2 14.5373 52.2 16.356C52.2 18.588 51.704 20.4067 50.712 21.812C49.72 23.2173 48.604 24.3747 47.364 25.284C46.124 26.1107 45.008 26.8133 44.016 27.392C43.024 27.9707 42.528 28.632 42.528 29.376C42.528 29.9547 42.9 30.5333 43.644 31.112C44.388 31.608 45.4627 31.856 46.868 31.856C49.1827 31.856 51.58 31.1947 54.06 29.872C56.6227 28.5493 59.144 26.896 61.624 24.912C64.1867 22.928 66.6667 20.9027 69.064 18.836C71.4613 16.6867 73.652 14.8267 75.636 13.256C77.7027 11.6027 79.5213 10.5693 81.092 10.156C81.5053 9.99066 81.7947 9.99066 81.96 10.156C82.208 10.2387 82.0013 10.4867 81.34 10.9C79.0253 12.14 76.4627 14.2893 73.652 17.348C70.924 20.324 67.9893 23.8373 64.848 27.888C61.7067 31.9387 58.4 36.196 54.928 40.66C51.5387 45.124 48.0253 49.5053 44.388 53.804C40.8333 58.1027 37.196 62.0293 33.476 65.584C29.756 69.056 25.9947 71.8667 22.192 74.016C18.3893 76.0827 14.5867 77.116 10.784 77.116ZM121.227 54.3C120.897 54.9613 120.401 55.54 119.739 56.036C119.161 56.532 118.706 56.8627 118.375 57.028C118.127 57.1107 118.21 56.8627 118.623 56.284C120.111 54.4653 121.062 52.7707 121.475 51.2C121.971 49.6293 121.971 48.3893 121.475 47.48C121.062 46.488 120.235 45.992 118.995 45.992C117.342 45.992 115.399 46.6533 113.167 47.976C110.935 49.2987 108.621 51.0347 106.223 53.184C103.909 55.3333 101.718 57.648 99.6513 60.128C97.6673 62.5253 96.0553 64.8813 94.8153 67.196C93.5753 69.428 92.9553 71.3707 92.9553 73.024C92.9553 74.264 93.2033 75.0493 93.6993 75.38C94.1953 75.7107 94.6913 75.876 95.1873 75.876C97.0886 75.876 99.2793 75.008 101.759 73.272C104.322 71.4533 106.926 69.18 109.571 66.452C112.217 63.724 114.738 60.9547 117.135 58.144C119.533 55.2507 121.599 52.6467 123.335 50.332C125.154 48.0173 126.394 46.4467 127.055 45.62C127.965 45.9507 129.039 46.0747 130.279 45.992C131.602 45.9093 132.718 45.8267 133.627 45.744C133.462 45.992 132.594 47.0253 131.023 48.844C129.535 50.6627 127.717 52.8533 125.567 55.416C123.501 57.896 121.393 60.4587 119.243 63.104C117.177 65.7493 115.441 68.064 114.035 70.048C112.63 72.032 111.927 73.3547 111.927 74.016C111.927 74.8427 112.093 75.38 112.423 75.628C112.837 75.7933 113.457 75.876 114.283 75.876C115.275 75.7933 116.722 75.3387 118.623 74.512C120.525 73.6027 122.963 71.8667 125.939 69.304C128.915 66.7413 132.511 62.9387 136.727 57.896C136.727 57.896 136.893 58.02 137.223 58.268C137.637 58.516 137.843 58.64 137.843 58.64C132.883 64.4267 128.295 68.9733 124.079 72.28C119.863 75.504 116.019 77.116 112.547 77.116C110.729 77.116 109.489 76.8267 108.827 76.248C108.249 75.6693 107.959 74.8427 107.959 73.768C107.959 72.9413 108.29 71.9493 108.951 70.792C109.695 69.552 110.522 68.3533 111.431 67.196C112.341 66.0387 113.085 65.1293 113.663 64.468C113.663 64.468 113.581 64.4267 113.415 64.344C113.25 64.2613 113.167 64.22 113.167 64.22C111.266 66.5347 109.241 68.684 107.091 70.668C104.942 72.652 102.793 74.2227 100.643 75.38C98.5766 76.5373 96.5513 77.116 94.5673 77.116C92.5006 77.116 91.054 76.62 90.2273 75.628C89.4006 74.5533 88.9873 72.9413 88.9873 70.792C88.9873 68.7253 89.6486 66.2453 90.9713 63.352C92.294 60.376 94.1953 57.4827 96.6753 54.672C99.1553 51.7787 102.131 49.3813 105.603 47.48C109.158 45.5787 113.126 44.628 117.507 44.628C119.657 44.628 121.145 45.0413 121.971 45.868C122.798 46.612 123.17 47.5213 123.087 48.596C123.005 49.6707 122.757 50.7453 122.343 51.82C121.93 52.8947 121.558 53.7213 121.227 54.3ZM182.207 77.116C180.389 77.116 178.942 76.744 177.867 76C176.793 75.256 176.255 74.3053 176.255 73.148C176.255 71.66 176.834 70.0067 177.991 68.188C179.149 66.2867 180.554 64.3027 182.207 62.236C183.943 60.1693 185.638 58.1853 187.291 56.284C189.027 54.3 190.474 52.5227 191.631 50.952C192.789 49.3813 193.367 48.1 193.367 47.108C193.367 46.4467 193.202 45.992 192.871 45.744C192.541 45.496 191.962 45.372 191.135 45.372C189.895 45.372 188.242 46.0333 186.175 47.356C184.191 48.596 181.959 50.332 179.479 52.564C177.082 54.7133 174.602 57.152 172.039 59.88C169.559 62.5253 167.162 65.2533 164.847 68.064C162.533 70.8747 160.549 73.52 158.895 76C157.903 75.6693 156.787 75.5453 155.547 75.628C154.307 75.7107 152.985 75.876 151.579 76.124C153.481 73.7267 155.63 71.0813 158.027 68.188C160.507 65.212 162.863 62.3187 165.095 59.508C167.327 56.6973 169.187 54.176 170.675 51.944C172.163 49.6293 172.907 47.9347 172.907 46.86C172.907 46.2813 172.659 45.9093 172.163 45.744C171.75 45.496 171.13 45.372 170.303 45.372C168.567 45.372 166.335 46.4053 163.607 48.472C160.879 50.5387 157.986 53.184 154.927 56.408C151.869 59.5493 148.851 62.8973 145.875 66.452C142.982 69.924 140.419 73.1067 138.187 76C137.361 75.752 136.369 75.628 135.211 75.628C134.054 75.5453 132.649 75.7107 130.995 76.124C134.054 71.5773 137.071 67.2787 140.047 63.228C143.106 59.0947 145.627 55.54 147.611 52.564C149.678 49.588 150.711 47.604 150.711 46.612C150.711 46.364 150.629 46.1987 150.463 46.116C150.381 45.9507 150.215 45.868 149.967 45.868C149.141 45.868 147.983 46.6533 146.495 48.224C145.09 49.7947 143.602 51.572 142.031 53.556C140.461 55.54 139.055 57.2347 137.815 58.64L136.699 57.896C137.526 56.9867 138.518 55.788 139.675 54.3C140.833 52.7293 142.073 51.2 143.395 49.712C144.801 48.1413 146.206 46.8187 147.611 45.744C149.017 44.6693 150.381 44.132 151.703 44.132C152.695 44.132 153.522 44.4213 154.183 45C154.927 45.496 155.299 46.1573 155.299 46.984C155.299 48.0587 154.969 49.2573 154.307 50.58C153.646 51.82 152.737 53.2667 151.579 54.92C150.422 56.4907 149.099 58.2267 147.611 60.128C146.206 62.0293 144.718 64.1373 143.147 66.452L143.395 66.948C145.049 65.212 146.743 63.3107 148.479 61.244C150.298 59.1773 152.158 57.152 154.059 55.168C155.961 53.184 157.862 51.3653 159.763 49.712C161.665 48.0587 163.607 46.736 165.591 45.744C167.575 44.752 169.518 44.256 171.419 44.256C173.403 44.256 174.767 44.752 175.511 45.744C176.255 46.736 176.627 47.6867 176.627 48.596C176.627 49.9187 176.379 51.2413 175.883 52.564C175.387 53.8867 174.767 55.168 174.023 56.408C173.279 57.5653 172.535 58.64 171.791 59.632C171.047 60.5413 170.386 61.2853 169.807 61.864C169.229 62.4427 168.898 62.8147 168.815 62.98L168.071 62.36C168.65 61.7813 169.559 60.7893 170.799 59.384C172.039 57.9787 173.486 56.4493 175.139 54.796C176.875 53.06 178.694 51.4067 180.595 49.836C182.497 48.1827 184.398 46.86 186.299 45.868C188.201 44.7933 190.019 44.256 191.755 44.256C193.822 44.256 195.227 44.7933 195.971 45.868C196.798 46.86 197.211 47.7693 197.211 48.596C197.211 50.4147 196.633 52.44 195.475 54.672C194.318 56.8213 192.871 59.012 191.135 61.244C189.399 63.3933 187.663 65.4187 185.927 67.32C184.191 69.2213 182.745 70.8333 181.587 72.156C180.43 73.396 179.851 74.1813 179.851 74.512C179.851 75.256 180.719 75.628 182.455 75.628C184.687 75.628 186.919 74.9253 189.151 73.52C191.466 72.1147 193.657 70.42 195.723 68.436C197.79 66.3693 199.65 64.344 201.303 62.36C203.039 60.2933 204.445 58.6813 205.519 57.524L206.511 58.268C205.519 59.3427 204.114 60.9133 202.295 62.98C200.559 65.0467 198.575 67.196 196.343 69.428C194.111 71.5773 191.797 73.396 189.399 74.884C187.002 76.372 184.605 77.116 182.207 77.116ZM250.625 77.116C248.807 77.116 247.36 76.744 246.285 76C245.211 75.256 244.673 74.3053 244.673 73.148C244.673 71.66 245.252 70.0067 246.409 68.188C247.567 66.2867 248.972 64.3027 250.625 62.236C252.361 60.1693 254.056 58.1853 255.709 56.284C257.445 54.3 258.892 52.5227 260.049 50.952C261.207 49.3813 261.785 48.1 261.785 47.108C261.785 46.4467 261.62 45.992 261.289 45.744C260.959 45.496 260.38 45.372 259.553 45.372C258.313 45.372 256.66 46.0333 254.593 47.356C252.609 48.596 250.377 50.332 247.897 52.564C245.5 54.7133 243.02 57.152 240.457 59.88C237.977 62.5253 235.58 65.2533 233.265 68.064C230.951 70.8747 228.967 73.52 227.313 76C226.321 75.6693 225.205 75.5453 223.965 75.628C222.725 75.7107 221.403 75.876 219.997 76.124C221.899 73.7267 224.048 71.0813 226.445 68.188C228.925 65.212 231.281 62.3187 233.513 59.508C235.745 56.6973 237.605 54.176 239.093 51.944C240.581 49.6293 241.325 47.9347 241.325 46.86C241.325 46.2813 241.077 45.9093 240.581 45.744C240.168 45.496 239.548 45.372 238.721 45.372C236.985 45.372 234.753 46.4053 232.025 48.472C229.297 50.5387 226.404 53.184 223.345 56.408C220.287 59.5493 217.269 62.8973 214.293 66.452C211.4 69.924 208.837 73.1067 206.605 76C205.779 75.752 204.787 75.628 203.629 75.628C202.472 75.5453 201.067 75.7107 199.413 76.124C202.472 71.5773 205.489 67.2787 208.465 63.228C211.524 59.0947 214.045 55.54 216.029 52.564C218.096 49.588 219.129 47.604 219.129 46.612C219.129 46.364 219.047 46.1987 218.881 46.116C218.799 45.9507 218.633 45.868 218.385 45.868C217.559 45.868 216.401 46.6533 214.913 48.224C213.508 49.7947 212.02 51.572 210.449 53.556C208.879 55.54 207.473 57.2347 206.233 58.64L205.117 57.896C205.944 56.9867 206.936 55.788 208.093 54.3C209.251 52.7293 210.491 51.2 211.813 49.712C213.219 48.1413 214.624 46.8187 216.029 45.744C217.435 44.6693 218.799 44.132 220.121 44.132C221.113 44.132 221.94 44.4213 222.601 45C223.345 45.496 223.717 46.1573 223.717 46.984C223.717 48.0587 223.387 49.2573 222.725 50.58C222.064 51.82 221.155 53.2667 219.997 54.92C218.84 56.4907 217.517 58.2267 216.029 60.128C214.624 62.0293 213.136 64.1373 211.565 66.452L211.813 66.948C213.467 65.212 215.161 63.3107 216.897 61.244C218.716 59.1773 220.576 57.152 222.477 55.168C224.379 53.184 226.28 51.3653 228.181 49.712C230.083 48.0587 232.025 46.736 234.009 45.744C235.993 44.752 237.936 44.256 239.837 44.256C241.821 44.256 243.185 44.752 243.929 45.744C244.673 46.736 245.045 47.6867 245.045 48.596C245.045 49.9187 244.797 51.2413 244.301 52.564C243.805 53.8867 243.185 55.168 242.441 56.408C241.697 57.5653 240.953 58.64 240.209 59.632C239.465 60.5413 238.804 61.2853 238.225 61.864C237.647 62.4427 237.316 62.8147 237.233 62.98L236.489 62.36C237.068 61.7813 237.977 60.7893 239.217 59.384C240.457 57.9787 241.904 56.4493 243.557 54.796C245.293 53.06 247.112 51.4067 249.013 49.836C250.915 48.1827 252.816 46.86 254.717 45.868C256.619 44.7933 258.437 44.256 260.173 44.256C262.24 44.256 263.645 44.7933 264.389 45.868C265.216 46.86 265.629 47.7693 265.629 48.596C265.629 50.4147 265.051 52.44 263.893 54.672C262.736 56.8213 261.289 59.012 259.553 61.244C257.817 63.3933 256.081 65.4187 254.345 67.32C252.609 69.2213 251.163 70.8333 250.005 72.156C248.848 73.396 248.269 74.1813 248.269 74.512C248.269 75.256 249.137 75.628 250.873 75.628C253.105 75.628 255.337 74.9253 257.569 73.52C259.884 72.1147 262.075 70.42 264.141 68.436C266.208 66.3693 268.068 64.344 269.721 62.36C271.457 60.2933 272.863 58.6813 273.937 57.524L274.929 58.268C273.937 59.3427 272.532 60.9133 270.713 62.98C268.977 65.0467 266.993 67.196 264.761 69.428C262.529 71.5773 260.215 73.396 257.817 74.884C255.42 76.372 253.023 77.116 250.625 77.116ZM300.567 54.3C300.236 54.9613 299.74 55.54 299.079 56.036C298.5 56.532 298.046 56.8627 297.715 57.028C297.467 57.1107 297.55 56.8627 297.963 56.284C299.451 54.4653 300.402 52.7707 300.815 51.2C301.311 49.6293 301.311 48.3893 300.815 47.48C300.402 46.488 299.575 45.992 298.335 45.992C296.682 45.992 294.739 46.6533 292.507 47.976C290.275 49.2987 287.96 51.0347 285.563 53.184C283.248 55.3333 281.058 57.648 278.991 60.128C277.007 62.5253 275.395 64.8813 274.155 67.196C272.915 69.428 272.295 71.3707 272.295 73.024C272.295 74.264 272.543 75.0493 273.039 75.38C273.535 75.7107 274.031 75.876 274.527 75.876C276.428 75.876 278.619 75.008 281.099 73.272C283.662 71.4533 286.266 69.18 288.911 66.452C291.556 63.724 294.078 60.9547 296.475 58.144C298.872 55.2507 300.939 52.6467 302.675 50.332C304.494 48.0173 305.734 46.4467 306.395 45.62C307.304 45.9507 308.379 46.0747 309.619 45.992C310.942 45.9093 312.058 45.8267 312.967 45.744C312.802 45.992 311.934 47.0253 310.363 48.844C308.875 50.6627 307.056 52.8533 304.907 55.416C302.84 57.896 300.732 60.4587 298.583 63.104C296.516 65.7493 294.78 68.064 293.375 70.048C291.97 72.032 291.267 73.3547 291.267 74.016C291.267 74.8427 291.432 75.38 291.763 75.628C292.176 75.7933 292.796 75.876 293.623 75.876C294.615 75.7933 296.062 75.3387 297.963 74.512C299.864 73.6027 302.303 71.8667 305.279 69.304C308.255 66.7413 311.851 62.9387 316.067 57.896C316.067 57.896 316.232 58.02 316.563 58.268C316.976 58.516 317.183 58.64 317.183 58.64C312.223 64.4267 307.635 68.9733 303.419 72.28C299.203 75.504 295.359 77.116 291.887 77.116C290.068 77.116 288.828 76.8267 288.167 76.248C287.588 75.6693 287.299 74.8427 287.299 73.768C287.299 72.9413 287.63 71.9493 288.291 70.792C289.035 69.552 289.862 68.3533 290.771 67.196C291.68 66.0387 292.424 65.1293 293.003 64.468C293.003 64.468 292.92 64.4267 292.755 64.344C292.59 64.2613 292.507 64.22 292.507 64.22C290.606 66.5347 288.58 68.684 286.431 70.668C284.282 72.652 282.132 74.2227 279.983 75.38C277.916 76.5373 275.891 77.116 273.907 77.116C271.84 77.116 270.394 76.62 269.567 75.628C268.74 74.5533 268.327 72.9413 268.327 70.792C268.327 68.7253 268.988 66.2453 270.311 63.352C271.634 60.376 273.535 57.4827 276.015 54.672C278.495 51.7787 281.471 49.3813 284.943 47.48C288.498 45.5787 292.466 44.628 296.847 44.628C298.996 44.628 300.484 45.0413 301.311 45.868C302.138 46.612 302.51 47.5213 302.427 48.596C302.344 49.6707 302.096 50.7453 301.683 51.82C301.27 52.8947 300.898 53.7213 300.567 54.3ZM317.155 77.116C314.84 77.116 313.228 76.5787 312.319 75.504C311.41 74.3467 310.955 72.5693 310.955 70.172C310.955 67.692 311.782 64.964 313.435 61.988C315.088 59.012 317.279 56.2013 320.007 53.556C322.818 50.828 325.959 48.596 329.431 46.86C332.903 45.124 336.458 44.256 340.095 44.256C342.079 44.256 343.443 44.6693 344.187 45.496C345.014 46.24 345.427 47.1493 345.427 48.224C345.51 49.2987 345.262 50.208 344.683 50.952C344.683 50.952 344.435 51.2 343.939 51.696C343.526 52.192 343.112 52.7293 342.699 53.308C342.286 53.804 342.079 54.052 342.079 54.052C343.732 51.1587 344.311 49.092 343.815 47.852C343.402 46.5293 342.244 45.868 340.343 45.868C338.938 45.868 337.16 46.5293 335.011 47.852C332.944 49.1747 330.712 50.9107 328.315 53.06C326 55.2093 323.81 57.524 321.743 60.004C319.676 62.484 317.982 64.8813 316.659 67.196C315.419 69.5107 314.799 71.4947 314.799 73.148C314.799 73.9747 315.088 74.5947 315.667 75.008C316.246 75.4213 316.99 75.628 317.899 75.628C319.139 75.628 320.586 75.132 322.239 74.14C323.892 73.148 325.587 71.908 327.323 70.42C329.059 68.932 330.671 67.444 332.159 65.956C333.647 64.468 334.846 63.1867 335.755 62.112C336.747 61.0373 337.284 60.4173 337.367 60.252C337.698 59.8387 338.648 58.4747 340.219 56.16C341.872 53.8453 343.939 50.952 346.419 47.48C348.899 44.008 351.544 40.2467 354.355 36.196C357.248 32.0627 360.1 27.9707 362.911 23.92C365.722 19.7867 368.326 16.0253 370.723 12.636C373.12 9.24666 375.063 6.47733 376.551 4.328C378.039 2.17866 378.866 1.02133 379.031 0.855999C379.858 1.26933 380.643 1.55866 381.387 1.724C382.214 1.80666 383.454 1.76533 385.107 1.6C384.942 1.848 383.95 3.25333 382.131 5.81599C380.312 8.296 377.956 11.5613 375.063 15.612C372.17 19.6627 369.028 24.0853 365.639 28.88C362.25 33.6747 358.819 38.4693 355.347 43.264C351.958 48.0587 348.816 52.4813 345.923 56.532C343.03 60.5827 340.674 63.8893 338.855 66.452C337.036 68.932 336.044 70.296 335.879 70.544C335.548 71.04 335.176 71.7013 334.763 72.528C334.432 73.272 334.267 73.9747 334.267 74.636C334.267 75.2973 334.598 75.628 335.259 75.628C337.739 75.628 340.178 74.9253 342.575 73.52C345.055 72.032 347.37 70.2547 349.519 68.188C351.751 66.1213 353.694 64.1373 355.347 62.236C357 60.252 358.323 58.7227 359.315 57.648L360.307 58.392C359.398 59.5493 358.034 61.1613 356.215 63.228C354.396 65.2947 352.288 67.4027 349.891 69.552C347.576 71.6187 345.138 73.396 342.575 74.884C340.012 76.372 337.532 77.116 335.135 77.116C333.564 77.116 332.366 76.8267 331.539 76.248C330.712 75.752 330.299 75.0493 330.299 74.14C330.299 73.0653 330.671 71.8667 331.415 70.544C332.242 69.2213 333.11 67.9813 334.019 66.824C334.928 65.584 335.59 64.716 336.003 64.22C336.003 64.22 335.92 64.22 335.755 64.22C335.672 64.1373 335.631 64.096 335.631 64.096C335.548 64.1787 334.887 64.8813 333.647 66.204C332.49 67.5267 330.96 69.056 329.059 70.792C327.24 72.4453 325.298 73.9333 323.231 75.256C321.164 76.496 319.139 77.116 317.155 77.116Z" fill="black"/>
</svg>
